<svg width="82" height="74" viewBox="0 0 82 74" fill="none" xmlns="http://www.w3.org/2000/svg">
<path d="M77.72 34.96C77.72 34.87 75.33 26.37 68.02 23.85C64.5826 22.6346 60.8098 22.7849 57.48 24.27H57.38L57.29 24.32C54.57 25.44 50.6 29.77 47.09 33.58C46.28 34.46 45.5 35.31 44.73 36.13C45.7199 37.1534 46.6514 38.2318 47.52 39.36C47.9649 39.9285 48.3315 40.554 48.61 41.22C48.9274 42.0438 49.0967 42.9172 49.11 43.8C50.3074 46.6223 52.2932 49.0394 54.8296 50.7616C57.3659 52.4838 60.345 53.4381 63.41 53.51H63.48C66.4902 53.4207 69.4141 52.4837 71.9154 50.8067C74.4168 49.1296 76.3941 46.7807 77.62 44.03C77.7726 43.7001 77.9943 43.4069 78.27 43.17C78.4707 40.4414 78.289 37.6982 77.73 35.02C77.7281 34.9998 77.7247 34.9797 77.72 34.96ZM69.33 40.45C68.623 40.5772 67.8944 40.4238 67.2987 40.0223C66.7031 39.6209 66.2874 39.003 66.14 38.3C66.024 37.7584 65.7123 37.2786 65.2646 36.9525C64.8168 36.6264 64.2646 36.4769 63.7135 36.5326C63.1624 36.5884 62.6513 36.8454 62.2779 37.2545C61.9046 37.6637 61.6952 38.1961 61.69 38.75C61.69 39.4793 61.4002 40.1788 60.8845 40.6945C60.3688 41.2103 59.6693 41.5 58.94 41.5C58.2106 41.5 57.5112 41.2103 56.9955 40.6945C56.4797 40.1788 56.19 39.4793 56.19 38.75C56.1941 36.8323 56.909 34.9843 58.1966 33.5631C59.4842 32.1419 61.2529 31.2486 63.1609 31.0558C65.0688 30.863 66.9805 31.3845 68.5263 32.5193C70.0722 33.6542 71.1424 35.3219 71.53 37.2C71.601 37.558 71.6003 37.9266 71.5279 38.2843C71.4555 38.6421 71.3129 38.9819 71.1083 39.2842C70.9037 39.5864 70.6412 39.8451 70.3359 40.0452C70.0307 40.2453 69.6888 40.3829 69.33 40.45Z" fill="white"/>
<path d="M40.6999 50.04C42.6999 47.58 43.3699 45.88 43.5699 44.78C43.2602 43.9519 42.9965 43.1073 42.7799 42.25C42.3599 41.73 41.7199 40.99 40.6999 39.92C39.6203 40.9262 38.6727 42.0653 37.8799 43.31C37.7402 43.7813 37.723 44.2803 37.8299 44.76C38.0299 45.86 38.7199 47.56 40.6999 50.04Z" fill="white"/>
<path d="M63.4099 59C60.2155 58.96 57.0719 58.1958 54.2156 56.7651C51.3593 55.3343 48.8648 53.2743 46.9199 50.74C45.6989 52.6622 44.2849 54.4549 42.6999 56.09L40.6999 58.2L38.6999 56.09C37.2083 54.5347 35.8689 52.8403 34.6999 51.03C32.7637 53.4735 30.3106 55.4581 27.5166 56.8413C24.7226 58.2245 21.657 58.9719 18.5399 59.03H18.4499C13.5611 58.9923 8.84437 57.2204 5.13989 54.03C5.30989 55.13 5.46989 56.33 5.61989 57.65C9.97614 62.6191 15.3407 66.6035 21.3565 69.3382C27.3724 72.0728 33.9017 73.4949 40.5099 73.51H40.6999H40.8999C47.5133 73.5031 54.0494 72.0868 60.0725 69.3555C66.0956 66.6242 71.4674 62.6405 75.8299 57.67C75.9599 56.49 76.0999 55.41 76.2599 54.41C72.645 57.3349 68.1495 58.9556 63.4999 59.01L63.4099 59Z" fill="white"/>
<path d="M18.4098 53.51H18.4798C21.362 53.4279 24.1679 52.5651 26.5983 51.0135C29.0286 49.462 30.9923 47.2799 32.2798 44.7C32.1894 43.5485 32.3533 42.3911 32.7598 41.31C33.0998 40.45 33.8598 39.16 36.6798 36.18C35.9098 35.36 35.1298 34.51 34.3198 33.63C30.8098 29.81 26.8398 25.49 24.1198 24.37C24.0868 24.3595 24.0562 24.3425 24.0298 24.32H23.9298C20.5964 22.8353 16.8207 22.685 13.3798 23.9C6.06984 26.42 3.70983 34.9 3.68983 35.01C3.33711 36.8811 3.12981 38.7768 3.06982 40.68C4.79982 48.13 11.2098 53.51 18.4098 53.51ZM9.91983 37.21C10.2969 35.3209 11.364 33.64 12.913 32.495C14.462 31.3499 16.382 30.8227 18.2985 31.0162C20.2151 31.2098 21.9909 32.1101 23.2797 33.5418C24.5685 34.9734 25.278 36.8337 25.2698 38.76C25.2698 39.4893 24.9801 40.1888 24.4644 40.7045C23.9486 41.2203 23.2492 41.51 22.5198 41.51C21.7905 41.51 21.091 41.2203 20.5753 40.7045C20.0596 40.1888 19.7698 39.4893 19.7698 38.76C19.777 38.1975 19.5731 37.6527 19.1985 37.233C18.8239 36.8133 18.3056 36.5492 17.7459 36.4928C17.1862 36.4363 16.6256 36.5916 16.1747 36.9279C15.7237 37.2643 15.4152 37.7574 15.3098 38.31C15.2376 38.6639 15.0964 39.0001 14.8942 39.2995C14.692 39.5988 14.4329 39.8554 14.1316 40.0546C13.8303 40.2537 13.4926 40.3916 13.138 40.4603C12.7834 40.529 12.4187 40.5272 12.0648 40.455C11.3501 40.3091 10.7225 39.8853 10.3203 39.2767C10.1211 38.9754 9.98321 38.6378 9.91451 38.2832C9.8458 37.9286 9.8476 37.5639 9.91983 37.21Z" fill="white"/>
<path d="M57.99 3.26002C46.8731 -1.08667 34.5269 -1.08667 23.41 3.26002C20.179 4.52354 16.6554 4.84261 13.25 4.18002L0 1.57002C0.63 2.91002 1.17 4.11002 1.64 5.18002C3.41 9.18002 4.13 10.61 6.14 11.6H6.19C6.26374 11.6408 6.33397 11.6877 6.39999 11.74L6.61 11.88L6.84 12.1L6.99001 12.25L7.17999 12.52C7.22015 12.5744 7.25689 12.6311 7.28999 12.69C7.34264 12.7905 7.38939 12.8941 7.42999 13C7.42999 13.06 7.43 13.11 7.5 13.17C7.53611 13.2809 7.56287 13.3947 7.58 13.51C7.58483 13.5666 7.58483 13.6235 7.58 13.68C7.58994 13.8032 7.58994 13.9269 7.58 14.05V14.21C7.56979 14.338 7.54973 14.4651 7.52 14.59V14.74C7.48382 14.8671 7.43699 14.9908 7.38 15.11C7.38 15.11 7.38 15.19 7.33 15.24V15.3C6.04461 17.675 5.13706 20.2357 4.64 22.89C6.60245 20.9581 8.96941 19.486 11.57 18.58C16.4103 16.8758 21.7249 17.1306 26.38 19.29C30.18 20.95 34.38 25.46 38.38 29.83C39.18 30.71 39.96 31.55 40.71 32.35C41.47 31.55 42.24 30.71 43.05 29.83C47.05 25.46 51.21 20.95 55.05 19.29C59.7027 17.1354 65.0124 16.8807 69.85 18.58C72.4547 19.4834 74.8255 20.9557 76.79 22.89C76.2853 20.2363 75.3746 17.6763 74.09 15.3C74.0923 15.2767 74.0923 15.2533 74.09 15.23C74.09 15.18 74.09 15.14 74.04 15.1C73.9863 14.9806 73.9428 14.8568 73.91 14.73C73.9053 14.6801 73.9053 14.6299 73.91 14.58C73.8803 14.4551 73.8602 14.328 73.85 14.2C73.845 14.1468 73.845 14.0932 73.85 14.04C73.85 13.92 73.85 13.79 73.85 13.67V13.5C73.85 13.39 73.9 13.27 73.94 13.16L74 12.99C74.044 12.8839 74.0941 12.7804 74.15 12.68L74.25 12.51C74.3101 12.4153 74.3769 12.3251 74.45 12.24C74.45 12.19 74.55 12.14 74.6 12.09C74.6717 12.0117 74.7485 11.9382 74.83 11.87L75.03 11.73L75.24 11.59H75.29C77.29 10.59 78.02 9.17002 79.79 5.18002C80.27 4.10002 80.79 2.90002 81.44 1.56002L68.14 4.18002C64.7377 4.83846 61.2185 4.51948 57.99 3.26002Z" fill="white"/>
</svg>
