<svg width="36" height="33" viewBox="0 0 36 33" fill="none" xmlns="http://www.w3.org/2000/svg">
<path d="M34.3557 15.6942C34.3557 15.6538 33.2992 11.838 30.0679 10.7067C28.5484 10.1611 26.8807 10.2286 25.4088 10.8953H25.3645L25.3248 10.9177C24.1224 11.4205 22.3675 13.3643 20.8159 15.0747C20.4579 15.4697 20.1131 15.8513 19.7727 16.2194C20.2103 16.6789 20.6221 17.163 21.006 17.6694C21.2027 17.9246 21.3647 18.2055 21.4878 18.5044C21.6281 18.8743 21.703 19.2664 21.7089 19.6626C22.2382 20.9296 23.116 22.0147 24.2372 22.7878C25.3583 23.561 26.6752 23.9894 28.0301 24.0216H28.061C29.3917 23.9816 30.6841 23.5609 31.7899 22.8081C32.8956 22.0552 33.7696 21.0008 34.3115 19.7659C34.379 19.6178 34.477 19.4862 34.5988 19.3798C34.6876 18.1549 34.6072 16.9234 34.3601 15.7211C34.3593 15.7121 34.3578 15.7031 34.3557 15.6942ZM30.647 18.1588C30.3345 18.2159 30.0124 18.147 29.7491 17.9668C29.4858 17.7866 29.302 17.5092 29.2369 17.1936C29.1856 16.9505 29.0478 16.7351 28.8499 16.5887C28.652 16.4423 28.4078 16.3752 28.1642 16.4002C27.9206 16.4252 27.6947 16.5406 27.5297 16.7243C27.3646 16.9079 27.2721 17.147 27.2698 17.3956C27.2698 17.723 27.1417 18.037 26.9137 18.2685C26.6857 18.5001 26.3765 18.6301 26.0541 18.6301C25.7317 18.6301 25.4225 18.5001 25.1946 18.2685C24.9666 18.037 24.8385 17.723 24.8385 17.3956C24.8403 16.5347 25.1564 15.7051 25.7255 15.0671C26.2947 14.4291 27.0765 14.0281 27.92 13.9416C28.7634 13.855 29.6084 14.0891 30.2917 14.5986C30.975 15.108 31.4481 15.8567 31.6195 16.6998C31.6509 16.8605 31.6506 17.026 31.6186 17.1866C31.5866 17.3472 31.5235 17.4997 31.4331 17.6354C31.3426 17.7711 31.2266 17.8872 31.0916 17.9771C30.9567 18.0669 30.8056 18.1287 30.647 18.1588Z" fill="black"/>
<path d="M17.9911 22.464C18.8752 21.3596 19.1714 20.5965 19.2598 20.1026C19.1229 19.7309 19.0063 19.3517 18.9106 18.9669C18.7249 18.7334 18.442 18.4012 17.9911 17.9209C17.5139 18.3726 17.095 18.8839 16.7446 19.4427C16.6828 19.6543 16.6752 19.8783 16.7225 20.0937C16.8109 20.5875 17.1159 21.3506 17.9911 22.464Z" fill="black"/>
<path d="M28.0298 26.4861C26.6178 26.4682 25.2282 26.1251 23.9656 25.4828C22.703 24.8406 21.6003 23.9158 20.7405 22.7781C20.2008 23.641 19.5758 24.4458 18.8751 25.1798L17.991 26.127L17.1069 25.1798C16.4476 24.4816 15.8555 23.721 15.3388 22.9083C14.4829 24.0052 13.3985 24.8961 12.1634 25.5171C10.9284 26.138 9.57324 26.4735 8.19535 26.4996H8.15557C5.9945 26.4827 3.90951 25.6873 2.27197 24.255C2.34712 24.7488 2.41785 25.2875 2.48415 25.8801C4.40981 28.1108 6.78116 29.8995 9.44043 31.1271C12.0997 32.3548 14.9859 32.9932 17.907 33H17.991H18.0794C21.0029 32.9969 23.8921 32.3611 26.5546 31.1349C29.217 29.9088 31.5916 28.1204 33.52 25.8891C33.5775 25.3594 33.6394 24.8745 33.7101 24.4256C32.1122 25.7387 30.125 26.4662 28.0696 26.4906L28.0298 26.4861Z" fill="black"/>
<path d="M8.13788 24.0216H8.16882C9.44288 23.9848 10.6832 23.5975 11.7575 22.9009C12.8318 22.2044 13.6999 21.2248 14.269 20.0667C14.2291 19.5497 14.3015 19.0302 14.4812 18.5448C14.6315 18.1588 14.9674 17.5797 16.214 16.2419C15.8736 15.8738 15.5288 15.4922 15.1708 15.0971C13.6192 13.3823 11.8643 11.4429 10.6619 10.9402C10.6473 10.9354 10.6338 10.9278 10.6222 10.9177H10.578C9.10445 10.2512 7.43542 10.1837 5.91441 10.7292C2.68307 11.8604 1.63985 15.6673 1.63101 15.7167C1.47508 16.5567 1.38345 17.4077 1.35693 18.262C2.12167 21.6065 4.95517 24.0216 8.13788 24.0216ZM4.38493 16.7043C4.55161 15.8562 5.0233 15.1017 5.70803 14.5876C6.39277 14.0736 7.24147 13.8369 8.08868 13.9238C8.93588 14.0107 9.72086 14.4149 10.2906 15.0575C10.8603 15.7002 11.1739 16.5354 11.1703 17.4001C11.1703 17.7275 11.0422 18.0415 10.8142 18.273C10.5863 18.5046 10.2771 18.6346 9.95468 18.6346C9.63228 18.6346 9.32308 18.5046 9.09511 18.273C8.86713 18.0415 8.73906 17.7275 8.73906 17.4001C8.74222 17.1476 8.65211 16.903 8.48651 16.7146C8.3209 16.5262 8.09181 16.4077 7.84439 16.3823C7.59697 16.357 7.34917 16.4266 7.14984 16.5777C6.95052 16.7287 6.81412 16.95 6.76755 17.1981C6.73562 17.357 6.67319 17.5079 6.58382 17.6423C6.49446 17.7767 6.37991 17.8918 6.24671 17.9813C6.11351 18.0707 5.96427 18.1326 5.80752 18.1634C5.65076 18.1943 5.48956 18.1934 5.33312 18.161C5.01716 18.0955 4.73976 17.9053 4.56194 17.6321C4.4739 17.4968 4.41295 17.3452 4.38258 17.1861C4.35221 17.0269 4.35301 16.8632 4.38493 16.7043Z" fill="black"/>
<path d="M25.6341 1.46349C20.7199 -0.487828 15.2624 -0.487828 10.3482 1.46349C8.92 2.0307 7.36241 2.17394 5.85707 1.87649L0 0.704813C0.278487 1.30636 0.51719 1.84507 0.724951 2.32541C1.50737 4.12108 1.82564 4.76304 2.71415 5.20747H2.73625C2.76884 5.22578 2.79989 5.2468 2.82907 5.27031L2.92191 5.33316L3.02357 5.43193L3.08989 5.49926L3.17387 5.62047C3.19162 5.64486 3.20786 5.67035 3.22249 5.69679C3.24577 5.74191 3.26643 5.78838 3.28438 5.83595C3.28438 5.86289 3.28438 5.88533 3.31532 5.91227C3.33129 5.96205 3.34312 6.01311 3.35069 6.0649C3.35282 6.09029 3.35282 6.11582 3.35069 6.14122C3.35508 6.19649 3.35508 6.25204 3.35069 6.30732V6.37914C3.34618 6.43661 3.33731 6.49365 3.32417 6.54973V6.61707C3.30817 6.6741 3.28747 6.72967 3.26228 6.78317C3.26228 6.78317 3.26228 6.81908 3.24018 6.84153V6.86846C2.67198 7.93462 2.2708 9.08417 2.05108 10.2758C2.91857 9.40846 3.96487 8.74761 5.11444 8.34092C7.25405 7.57586 9.60337 7.69024 11.6611 8.65965C13.3409 9.40485 15.1975 11.4295 16.9656 13.3913C17.3193 13.7863 17.6641 14.1634 17.9956 14.5225C18.3315 14.1634 18.6719 13.7863 19.03 13.3913C20.7981 11.4295 22.637 9.40485 24.3345 8.65965C26.3912 7.69239 28.7383 7.57804 30.8767 8.34092C32.0281 8.74647 33.0761 9.40742 33.9445 10.2758C33.7214 9.08447 33.3188 7.93521 32.751 6.86846C32.752 6.85802 32.752 6.84749 32.751 6.83704C32.751 6.81459 32.751 6.79664 32.7289 6.77868C32.7051 6.72506 32.6859 6.6695 32.6714 6.61258C32.6693 6.59018 32.6693 6.56764 32.6714 6.54524C32.6583 6.48916 32.6494 6.43213 32.6449 6.37465C32.6427 6.35077 32.6427 6.32672 32.6449 6.30283C32.6449 6.24896 32.6449 6.1906 32.6449 6.13673V6.06041C32.6449 6.01103 32.667 5.95716 32.6847 5.90778L32.7112 5.83146C32.7307 5.78382 32.7528 5.73736 32.7775 5.6923L32.8217 5.61598C32.8483 5.57348 32.8778 5.53297 32.9101 5.49477C32.9101 5.47233 32.9543 5.44988 32.9764 5.42744C33.0081 5.39226 33.0421 5.35926 33.0781 5.32867L33.1665 5.26583L33.2593 5.20298H33.2814C34.1655 4.75406 34.4882 4.11659 35.2706 2.32541C35.4828 1.84058 35.7127 1.30187 36 0.700324L30.1208 1.87649C28.6169 2.17208 27.0612 2.02888 25.6341 1.46349Z" fill="black"/>
</svg>
