<svg width="1360" height="895" viewBox="0 0 1360 895" fill="none" xmlns="http://www.w3.org/2000/svg">
<path d="M58.2145 859.192C47.4386 859.192 38.9124 851.557 38.9124 842.171V151.898L38.8206 149.449V69.6352C38.8206 56.9604 50.3375 46.6467 64.4911 46.6467H635.664C635.664 46.6467 789.49 46.5997 825.359 46.5586C829.071 46.5586 832.456 44.8729 834.436 42.0596L857.306 9.54435C860.218 5.4036 865.216 2.93677 870.679 2.93677H1341.32C1350.03 2.93677 1357.12 9.28592 1357.12 17.0858V69.3827H1356.94V88.4947C1357 88.7825 1357.04 89.0468 1357.04 89.3111V841.83C1357.04 851.557 1348.51 859.186 1338.04 859.186H58.2145V859.192Z" fill="#19291E"/>
<mask id="mask0_804_137" style="mask-type:luminance" maskUnits="userSpaceOnUse" x="35" y="0" width="1325" height="863">
<path d="M35.2593 0H1360V862.299H35.2593V0Z" fill="white"/>
</mask>
<g mask="url(#mask0_804_137)">
<path d="M1341.33 5.38011C1348.55 5.38011 1354.4 10.6192 1354.4 17.0858V66.9335H1354.21V88.4947C1354.23 88.7767 1354.3 89.0351 1354.3 89.3111V842.171C1354.3 850.223 1347.02 856.749 1338.03 856.749H57.926C48.9341 856.749 41.6475 850.223 41.6475 842.171V149.449H41.5556V69.6294C41.5556 58.2878 51.8199 49.09 64.4912 49.09H635.664C635.664 49.09 789.49 49.0372 825.366 49.0019C829.996 49.0019 834.273 46.8699 836.745 43.3576L859.615 10.8424C862.002 7.44168 866.18 5.37424 870.673 5.37424H1341.31M1341.31 0.481689H870.673C864.265 0.481689 858.408 3.37728 854.991 8.23459L832.121 40.7498C830.646 42.8525 828.114 44.1094 825.359 44.1094C789.484 44.1446 635.657 44.1975 635.657 44.1975H64.4912C48.8292 44.1975 36.0923 55.6036 36.0923 69.6235V154.336H36.1841V842.165C36.1841 852.902 45.9368 861.635 57.926 861.635H1338.03C1350.01 861.635 1359.76 852.902 1359.76 842.165V89.3111C1359.76 88.9411 1359.72 88.5828 1359.67 88.2246V71.8201L1359.86 66.9335V17.0858C1359.86 7.93505 1351.55 0.487563 1341.33 0.487563L1341.31 0.481689Z" fill="#55725E"/>
</g>
<path d="M21.8273 104.617H1301.94C1303.19 104.617 1304.42 104.729 1305.65 104.946C1306.87 105.163 1308.06 105.486 1309.21 105.915C1310.36 106.338 1311.46 106.866 1312.5 107.483C1313.53 108.106 1314.5 108.811 1315.38 109.603C1316.26 110.391 1317.05 111.248 1317.74 112.182C1318.43 113.11 1319.02 114.091 1319.49 115.124C1319.97 116.152 1320.33 117.215 1320.58 118.314C1320.82 119.412 1320.94 120.516 1320.94 121.632V874.498C1320.94 875.614 1320.82 876.724 1320.58 877.816C1320.33 878.915 1319.97 879.978 1319.49 881.011C1319.02 882.045 1318.43 883.02 1317.74 883.954C1317.05 884.882 1316.26 885.739 1315.38 886.532C1314.5 887.319 1313.53 888.024 1312.5 888.647C1311.46 889.269 1310.36 889.792 1309.21 890.221C1308.06 890.65 1306.87 890.967 1305.65 891.19C1304.42 891.407 1303.19 891.513 1301.94 891.513H21.8273C20.5811 891.513 19.3416 891.407 18.1217 891.19C16.8952 890.967 15.7081 890.65 14.5538 890.221C13.3994 889.792 12.3041 889.269 11.2679 888.647C10.2316 888.024 9.27405 887.319 8.38863 886.532C7.50977 885.739 6.71618 884.882 6.02752 883.954C5.3323 883.02 4.74859 882.045 4.26981 881.011C3.79102 879.978 3.4303 878.915 3.18763 877.816C2.94496 876.724 2.8269 875.614 2.8269 874.498V121.632C2.8269 120.516 2.94496 119.412 3.18763 118.314C3.4303 117.215 3.79102 116.152 4.26981 115.124C4.74859 114.091 5.3323 113.11 6.02752 112.182C6.71618 111.248 7.50977 110.391 8.38863 109.603C9.27405 108.811 10.2316 108.106 11.2679 107.483C12.3041 106.866 13.3994 106.338 14.5538 105.915C15.7081 105.486 16.8952 105.163 18.1217 104.946C19.3416 104.729 20.5811 104.617 21.8273 104.617Z" fill="#091708"/>
<mask id="mask1_804_137" style="mask-type:luminance" maskUnits="userSpaceOnUse" x="0" y="101" width="1325" height="794">
<path d="M0 101.481H1324.74V894.262H0V101.481Z" fill="white"/>
</mask>
<g mask="url(#mask1_804_137)">
<path d="M1301.94 107.06C1310.93 107.06 1318.21 113.585 1318.21 121.638V874.497C1318.21 882.55 1310.93 889.075 1301.94 889.075H21.8334C12.8416 889.075 5.5549 882.55 5.5549 874.497V121.638C5.5549 113.585 12.8416 107.06 21.8334 107.06H1301.94ZM1301.94 102.173H21.8334C9.84425 102.173 0.0915527 110.901 0.0915527 121.638V874.497C0.0915527 885.228 9.84425 893.962 21.8334 893.962H1301.94C1313.92 893.962 1323.67 885.234 1323.67 874.497V121.638C1323.67 110.907 1313.93 102.173 1301.94 102.173Z" fill="#55725E"/>
</g>
<path d="M22.1224 891.513C11.4778 891.513 2.8269 883.76 2.8269 874.234V819.141H1320.94V874.151C1320.94 883.725 1312.25 891.507 1301.56 891.507H22.1224V891.513Z" fill="#091708"/>
<mask id="mask2_804_137" style="mask-type:luminance" maskUnits="userSpaceOnUse" x="0" y="815" width="1325" height="80">
<path d="M0 815.688H1324.74V894.262H0V815.688Z" fill="white"/>
</mask>
<g mask="url(#mask2_804_137)">
<path d="M1318.21 821.591V874.158C1318.21 882.392 1310.76 889.07 1301.56 889.07H22.1155C12.9662 889.07 5.54834 882.427 5.54834 874.234V821.585H1318.21M1323.66 816.692H0.0915527V874.234C0.0915527 885.112 9.97543 893.963 22.122 893.963H1301.56C1313.75 893.963 1323.67 885.07 1323.67 874.158V816.698L1323.66 816.692Z" fill="#55725E"/>
</g>
<path d="M2.72852 184.22V101.951C2.72852 89.2761 14.2455 78.9682 28.399 78.9682H599.571C599.571 78.9682 753.404 78.9154 789.274 78.8801C792.979 78.8801 796.37 77.1945 798.351 74.3752L821.221 41.86C824.133 37.7193 829.13 35.2524 834.594 35.2524H1305.24C1313.95 35.2524 1321.04 41.5957 1321.04 49.4015V101.698H1320.86V184.214H2.72852V184.22Z" fill="#091708"/>
<path d="M1305.38 37.514C1312.61 37.514 1318.46 42.6595 1318.46 49.0106V97.9677H1318.27V179.009H5.46397V100.615C5.46397 89.4765 15.7294 80.4431 28.4021 80.4431H599.639C599.639 80.4431 753.483 80.3912 789.363 80.3565C793.994 80.3565 798.271 78.2568 800.744 74.813L823.616 42.8787C826.004 39.5388 830.189 37.5083 834.675 37.5083H1305.37M1305.37 32.7031H834.675C828.267 32.7031 822.409 35.547 818.992 40.3175L796.119 72.2576C794.643 74.3227 792.111 75.5572 789.357 75.5572C753.477 75.586 599.633 75.6437 599.633 75.6437H28.4021C12.7383 75.6437 0 86.8461 0 100.615V183.814H1323.73V102.773L1323.91 97.9677V49.0106C1323.91 40.0233 1315.6 32.7089 1305.38 32.7089L1305.37 32.7031Z" fill="#55725E"/>
<path d="M1186.79 73.4175H1165.52C1164.33 73.4175 1163.35 74.2867 1163.35 75.3557C1163.35 76.4305 1164.32 77.3057 1165.52 77.3057H1186.79C1187.99 77.3057 1188.96 76.4364 1188.96 75.3557C1188.96 74.2809 1187.99 73.4175 1186.79 73.4175Z" fill="#55725E"/>
<path d="M1261.19 65.9936L1269.94 58.1584C1270.37 57.7708 1270.61 57.2598 1270.61 56.7195C1270.61 56.1732 1270.37 55.6681 1269.94 55.2805C1269.06 54.4876 1267.62 54.4876 1266.73 55.2805L1257.98 63.1156L1249.23 55.2805C1248.35 54.4876 1246.9 54.4876 1246.02 55.2805C1245.58 55.6681 1245.35 56.1732 1245.35 56.7195C1245.35 57.2598 1245.58 57.7708 1246.02 58.1584L1254.77 65.9936L1246.02 73.8287C1245.13 74.6216 1245.13 75.9138 1246.02 76.7008C1246.9 77.4937 1248.35 77.4937 1249.23 76.7008L1257.98 68.8657L1266.73 76.7008C1267.62 77.4996 1269.06 77.4937 1269.94 76.7008C1270.82 75.9138 1270.82 74.6216 1269.94 73.8287L1261.19 65.9936Z" fill="#55725E"/>
<path d="M1227.29 53.9827H1206.67C1205.18 53.9827 1203.96 55.0692 1203.96 56.4025V74.8744C1203.96 76.2077 1205.18 77.2942 1206.67 77.2942H1227.29C1228.79 77.2942 1229.99 76.2077 1229.99 74.8744V56.4025C1229.99 55.0692 1228.79 53.9827 1227.29 53.9827ZM1226.28 70.5046C1226.28 72.4134 1224.54 73.964 1222.41 73.964H1211.55C1209.41 73.964 1207.69 72.4134 1207.69 70.5046V60.7723C1207.69 58.8635 1209.41 57.3129 1211.55 57.3129H1222.41C1224.54 57.3129 1226.28 58.8635 1226.28 60.7723V70.5046Z" fill="#55725E"/>
<path d="M79.9431 106.197H1243.82C1244.78 106.197 1245.75 106.238 1246.71 106.326C1247.68 106.408 1248.63 106.538 1249.58 106.702C1250.52 106.872 1251.46 107.084 1252.39 107.336C1253.31 107.589 1254.22 107.877 1255.11 108.212C1256.01 108.541 1256.88 108.911 1257.73 109.316C1258.58 109.727 1259.41 110.167 1260.22 110.649C1261.02 111.131 1261.8 111.648 1262.55 112.194C1263.29 112.746 1264.01 113.327 1264.69 113.938C1265.37 114.549 1266.02 115.189 1266.63 115.859C1267.25 116.528 1267.82 117.221 1268.36 117.944C1268.89 118.66 1269.39 119.406 1269.84 120.164C1270.3 120.928 1270.72 121.709 1271.08 122.513C1271.45 123.312 1271.78 124.123 1272.06 124.951C1272.34 125.779 1272.57 126.619 1272.76 127.471C1272.95 128.316 1273.09 129.174 1273.19 130.031C1273.28 130.895 1273.33 131.758 1273.33 132.627V133.35C1273.33 134.213 1273.28 135.077 1273.19 135.94C1273.09 136.797 1272.95 137.655 1272.76 138.507C1272.57 139.352 1272.34 140.192 1272.06 141.02C1271.78 141.849 1271.45 142.659 1271.08 143.464C1270.72 144.263 1270.3 145.044 1269.84 145.807C1269.39 146.571 1268.89 147.311 1268.36 148.033C1267.82 148.75 1267.25 149.443 1266.63 150.113C1266.02 150.782 1265.37 151.422 1264.69 152.033C1264.01 152.65 1263.29 153.225 1262.55 153.778C1261.8 154.324 1261.02 154.841 1260.22 155.322C1259.41 155.804 1258.58 156.244 1257.73 156.655C1256.88 157.061 1256.01 157.431 1255.11 157.766C1254.22 158.094 1253.31 158.388 1252.39 158.635C1251.46 158.887 1250.52 159.099 1249.58 159.269C1248.63 159.439 1247.68 159.563 1246.71 159.651C1245.75 159.733 1244.78 159.774 1243.82 159.774H79.9431C78.979 159.774 78.0149 159.733 77.0508 159.651C76.0932 159.563 75.1356 159.439 74.1846 159.269C73.2402 159.099 72.3023 158.887 71.3775 158.635C70.4528 158.388 69.5477 158.094 68.6491 157.766C67.7572 157.431 66.8849 157.061 66.0322 156.655C65.1796 156.244 64.3532 155.804 63.5531 155.322C62.7464 154.841 61.9724 154.324 61.2248 153.778C60.4771 153.225 59.7622 152.65 59.0801 152.033C58.3914 151.422 57.7487 150.782 57.1322 150.113C56.5222 149.443 55.945 148.75 55.4072 148.033C54.8694 147.311 54.3775 146.571 53.9184 145.807C53.4659 145.044 53.0527 144.263 52.6788 143.464C52.3116 142.659 51.9836 141.849 51.7082 141.02C51.4261 140.192 51.19 139.352 50.9998 138.507C50.8162 137.655 50.6719 136.797 50.5735 135.94C50.4817 135.077 50.4358 134.213 50.4358 133.35V132.627C50.4358 131.758 50.4817 130.895 50.5735 130.031C50.6719 129.174 50.8162 128.316 50.9998 127.471C51.19 126.619 51.4261 125.779 51.7082 124.951C51.9836 124.123 52.3116 123.312 52.6788 122.513C53.0527 121.709 53.4659 120.928 53.9184 120.164C54.3775 119.406 54.8694 118.66 55.4072 117.944C55.945 117.221 56.5222 116.528 57.1322 115.859C57.7487 115.189 58.3914 114.549 59.0801 113.938C59.7622 113.327 60.4771 112.746 61.2248 112.194C61.9724 111.648 62.7464 111.131 63.5531 110.649C64.3532 110.167 65.1796 109.727 66.0322 109.316C66.8849 108.911 67.7572 108.541 68.6491 108.212C69.5477 107.877 70.4528 107.589 71.3775 107.336C72.3023 107.084 73.2402 106.872 74.1846 106.702C75.1356 106.538 76.0932 106.408 77.0508 106.326C78.0149 106.238 78.979 106.197 79.9431 106.197Z" fill="#091708"/>
<path d="M1243.82 108.64C1258.61 108.64 1270.6 119.377 1270.6 132.627V133.35C1270.6 146.594 1258.61 157.337 1243.82 157.337H79.9432C65.1535 157.337 53.1577 146.6 53.1577 133.35V132.627C53.1577 119.383 65.1469 108.64 79.9432 108.64H1243.82ZM1243.82 103.754H79.9432C62.1693 103.754 47.7009 116.705 47.7009 132.627V133.35C47.7009 149.267 62.1627 162.223 79.9432 162.223H1243.82C1261.6 162.223 1276.06 149.273 1276.06 133.35V132.627C1276.06 116.71 1261.6 103.754 1243.82 103.754Z" fill="#55725E"/>
<path d="M98.42 120.431H113.9V123.239H101.444V131.591H113.684V134.399H101.444V145.631H98.42V120.431ZM122.767 127.775H129.247V130.151H129.679C130.135 129.167 130.783 128.447 131.623 127.991C132.463 127.511 133.423 127.271 134.503 127.271C136.303 127.271 137.755 127.859 138.859 129.035C139.963 130.211 140.551 131.927 140.623 134.183L137.671 134.615C137.671 132.959 137.275 131.771 136.483 131.051C135.691 130.307 134.719 129.935 133.567 129.935C132.823 129.935 132.175 130.079 131.623 130.367C131.095 130.655 130.651 131.051 130.291 131.555C129.931 132.059 129.667 132.647 129.499 133.319C129.331 133.991 129.247 134.711 129.247 135.479V143.039H133.783V145.631H122.335V143.039H126.439V130.367H122.767V127.775ZM151.47 137.567C151.542 139.343 152.094 140.771 153.126 141.851C154.158 142.931 155.598 143.471 157.446 143.471C158.286 143.471 159.018 143.375 159.642 143.183C160.266 142.991 160.794 142.727 161.226 142.391C161.682 142.055 162.042 141.671 162.306 141.239C162.594 140.783 162.822 140.303 162.99 139.799L165.654 140.519C165.15 142.175 164.214 143.531 162.846 144.587C161.502 145.619 159.678 146.135 157.374 146.135C156.102 146.135 154.926 145.919 153.846 145.487C152.79 145.031 151.878 144.395 151.11 143.579C150.342 142.763 149.742 141.791 149.31 140.663C148.878 139.535 148.662 138.287 148.662 136.919V136.055C148.662 134.807 148.878 133.643 149.31 132.563C149.766 131.483 150.39 130.559 151.182 129.791C151.974 128.999 152.898 128.387 153.954 127.955C155.034 127.499 156.198 127.271 157.446 127.271C158.91 127.271 160.17 127.547 161.226 128.099C162.306 128.627 163.182 129.287 163.854 130.079C164.55 130.871 165.054 131.735 165.366 132.671C165.702 133.607 165.87 134.471 165.87 135.263V137.567H151.47ZM157.446 129.935C156.654 129.935 155.91 130.067 155.214 130.331C154.542 130.571 153.942 130.919 153.414 131.375C152.91 131.831 152.49 132.371 152.154 132.995C151.842 133.595 151.638 134.255 151.542 134.975H163.062C163.014 134.207 162.822 133.511 162.486 132.887C162.174 132.263 161.754 131.735 161.226 131.303C160.722 130.871 160.134 130.535 159.462 130.295C158.814 130.055 158.142 129.935 157.446 129.935ZM188.741 142.895H188.309C187.997 143.447 187.613 143.927 187.157 144.335C186.725 144.719 186.245 145.055 185.717 145.343C185.213 145.607 184.673 145.799 184.097 145.919C183.545 146.063 183.005 146.135 182.477 146.135C181.277 146.135 180.161 145.931 179.129 145.523C178.097 145.115 177.185 144.527 176.393 143.759C175.625 142.991 175.013 142.043 174.557 140.915C174.125 139.763 173.909 138.455 173.909 136.991V136.415C173.909 134.975 174.137 133.691 174.593 132.563C175.049 131.411 175.661 130.451 176.429 129.683C177.197 128.891 178.097 128.291 179.129 127.883C180.161 127.475 181.253 127.271 182.405 127.271C183.629 127.271 184.757 127.559 185.789 128.135C186.845 128.687 187.685 129.503 188.309 130.583H188.741V127.775H191.549V152.831H188.741V142.895ZM182.765 143.471C183.605 143.471 184.385 143.315 185.105 143.003C185.825 142.691 186.449 142.247 186.977 141.671C187.529 141.095 187.961 140.411 188.273 139.619C188.585 138.803 188.741 137.903 188.741 136.919V136.487C188.741 135.527 188.585 134.651 188.273 133.859C187.961 133.043 187.529 132.347 186.977 131.771C186.449 131.195 185.813 130.751 185.069 130.439C184.349 130.103 183.581 129.935 182.765 129.935C181.925 129.935 181.133 130.091 180.389 130.403C179.669 130.715 179.033 131.159 178.481 131.735C177.953 132.311 177.533 132.995 177.221 133.787C176.933 134.579 176.789 135.455 176.789 136.415V136.991C176.789 137.999 176.933 138.899 177.221 139.691C177.533 140.483 177.953 141.167 178.481 141.743C179.033 142.295 179.669 142.727 180.389 143.039C181.109 143.327 181.901 143.471 182.765 143.471ZM213.448 127.775H216.256V145.631H213.448V142.391H213.016C212.44 143.543 211.684 144.455 210.748 145.127C209.812 145.799 208.624 146.135 207.184 146.135C206.2 146.135 205.288 145.967 204.448 145.631C203.632 145.319 202.924 144.839 202.324 144.191C201.748 143.543 201.292 142.739 200.956 141.779C200.644 140.819 200.488 139.703 200.488 138.431V127.775H203.296V138.071C203.296 139.943 203.68 141.311 204.448 142.175C205.216 143.039 206.392 143.471 207.976 143.471C209.68 143.471 211.012 142.895 211.972 141.743C212.956 140.567 213.448 139.007 213.448 137.063V127.775ZM228.399 137.567C228.471 139.343 229.023 140.771 230.055 141.851C231.087 142.931 232.527 143.471 234.375 143.471C235.215 143.471 235.947 143.375 236.571 143.183C237.195 142.991 237.723 142.727 238.155 142.391C238.611 142.055 238.971 141.671 239.235 141.239C239.523 140.783 239.751 140.303 239.919 139.799L242.583 140.519C242.079 142.175 241.143 143.531 239.775 144.587C238.431 145.619 236.607 146.135 234.303 146.135C233.031 146.135 231.855 145.919 230.775 145.487C229.719 145.031 228.807 144.395 228.039 143.579C227.271 142.763 226.671 141.791 226.239 140.663C225.807 139.535 225.591 138.287 225.591 136.919V136.055C225.591 134.807 225.807 133.643 226.239 132.563C226.695 131.483 227.319 130.559 228.111 129.791C228.903 128.999 229.827 128.387 230.883 127.955C231.963 127.499 233.127 127.271 234.375 127.271C235.839 127.271 237.099 127.547 238.155 128.099C239.235 128.627 240.111 129.287 240.783 130.079C241.479 130.871 241.983 131.735 242.295 132.671C242.631 133.607 242.799 134.471 242.799 135.263V137.567H228.399ZM234.375 129.935C233.583 129.935 232.839 130.067 232.143 130.331C231.471 130.571 230.871 130.919 230.343 131.375C229.839 131.831 229.419 132.371 229.083 132.995C228.771 133.595 228.567 134.255 228.471 134.975H239.991C239.943 134.207 239.751 133.511 239.415 132.887C239.103 132.263 238.683 131.735 238.155 131.303C237.651 130.871 237.063 130.535 236.391 130.295C235.743 130.055 235.071 129.935 234.375 129.935ZM254.798 145.631H251.99V127.775H254.798V130.799H255.23C256.334 128.447 258.254 127.271 260.99 127.271C263.054 127.271 264.698 127.919 265.922 129.215C267.146 130.487 267.758 132.407 267.758 134.975V145.631H264.95V135.551C264.95 133.679 264.53 132.275 263.69 131.339C262.85 130.403 261.71 129.935 260.27 129.935C258.566 129.935 257.222 130.523 256.238 131.699C255.278 132.851 254.798 134.399 254.798 136.343V145.631ZM277.021 127.775H282.637V120.431H285.445V127.775H292.357V130.367H285.445V141.959C285.445 142.679 285.769 143.039 286.417 143.039H291.493V145.631H285.409C284.593 145.631 283.921 145.367 283.393 144.839C282.889 144.311 282.637 143.639 282.637 142.823V130.367H277.021V127.775ZM303.276 143.039H309.756V123.023H303.492V120.431H312.564V143.039H319.044V145.631H303.276V143.039ZM341.879 142.391H341.447C340.871 143.543 340.115 144.455 339.179 145.127C338.243 145.799 337.055 146.135 335.615 146.135C334.631 146.135 333.719 145.967 332.879 145.631C332.063 145.319 331.355 144.839 330.755 144.191C330.179 143.543 329.723 142.739 329.387 141.779C329.075 140.819 328.919 139.703 328.919 138.431V127.775H331.727V138.071C331.727 139.943 332.111 141.311 332.879 142.175C333.647 143.039 334.823 143.471 336.407 143.471C338.111 143.471 339.443 142.895 340.403 141.743C341.387 140.567 341.879 139.007 341.879 137.063V127.775H344.687V150.023C344.687 150.839 344.423 151.511 343.895 152.039C343.391 152.567 342.731 152.831 341.915 152.831H331.727V150.239H340.907C341.555 150.239 341.879 149.879 341.879 149.159V142.391ZM393.489 139.367H382.689L380.853 145.631H377.613L385.245 120.431H390.933L398.565 145.631H395.325L393.489 139.367ZM387.873 121.727L383.517 136.559H392.661L388.305 121.727H387.873ZM409.556 132.383C409.556 133.247 409.916 133.907 410.636 134.363C411.38 134.819 412.724 135.119 414.668 135.263C416.756 135.431 418.34 135.935 419.42 136.775C420.524 137.591 421.076 138.791 421.076 140.375V140.591C421.076 141.455 420.896 142.235 420.536 142.931C420.2 143.603 419.72 144.179 419.096 144.659C418.496 145.139 417.752 145.499 416.864 145.739C416 146.003 415.052 146.135 414.02 146.135C412.628 146.135 411.428 145.955 410.42 145.595C409.436 145.211 408.608 144.719 407.936 144.119C407.288 143.495 406.796 142.799 406.46 142.031C406.124 141.239 405.932 140.447 405.884 139.655L408.548 139.007C408.668 140.375 409.196 141.479 410.132 142.319C411.068 143.135 412.316 143.543 413.876 143.543C415.196 143.543 416.252 143.291 417.044 142.787C417.86 142.259 418.268 141.527 418.268 140.591C418.268 139.583 417.872 138.863 417.08 138.431C416.288 137.999 415.004 137.723 413.228 137.603C411.164 137.459 409.58 136.979 408.476 136.163C407.372 135.347 406.82 134.159 406.82 132.599V132.383C406.82 131.543 407 130.811 407.36 130.187C407.72 129.539 408.2 128.999 408.8 128.567C409.424 128.135 410.12 127.811 410.888 127.595C411.656 127.379 412.46 127.271 413.3 127.271C414.476 127.271 415.508 127.439 416.396 127.775C417.284 128.087 418.028 128.507 418.628 129.035C419.228 129.539 419.684 130.127 419.996 130.799C420.332 131.471 420.548 132.143 420.644 132.815L417.98 133.463C417.86 132.311 417.392 131.411 416.576 130.763C415.784 130.115 414.74 129.791 413.444 129.791C412.94 129.791 412.448 129.851 411.968 129.971C411.512 130.067 411.104 130.223 410.744 130.439C410.384 130.655 410.096 130.931 409.88 131.267C409.664 131.579 409.556 131.951 409.556 132.383ZM436.099 135.191H436.711L443.515 127.775H446.971V127.991L439.555 136.163V136.811L447.835 145.415V145.631H444.379L436.783 137.783H436.099V145.631H433.291V120.431H436.099V135.191ZM459.186 137.567C459.258 139.343 459.81 140.771 460.842 141.851C461.874 142.931 463.314 143.471 465.162 143.471C466.002 143.471 466.734 143.375 467.358 143.183C467.982 142.991 468.51 142.727 468.942 142.391C469.398 142.055 469.758 141.671 470.022 141.239C470.31 140.783 470.538 140.303 470.706 139.799L473.37 140.519C472.866 142.175 471.93 143.531 470.562 144.587C469.218 145.619 467.394 146.135 465.09 146.135C463.818 146.135 462.642 145.919 461.562 145.487C460.506 145.031 459.594 144.395 458.826 143.579C458.058 142.763 457.458 141.791 457.026 140.663C456.594 139.535 456.378 138.287 456.378 136.919V136.055C456.378 134.807 456.594 133.643 457.026 132.563C457.482 131.483 458.106 130.559 458.898 129.791C459.69 128.999 460.614 128.387 461.67 127.955C462.75 127.499 463.914 127.271 465.162 127.271C466.626 127.271 467.886 127.547 468.942 128.099C470.022 128.627 470.898 129.287 471.57 130.079C472.266 130.871 472.77 131.735 473.082 132.671C473.418 133.607 473.586 134.471 473.586 135.263V137.567H459.186ZM465.162 129.935C464.37 129.935 463.626 130.067 462.93 130.331C462.258 130.571 461.658 130.919 461.13 131.375C460.626 131.831 460.206 132.371 459.87 132.995C459.558 133.595 459.354 134.255 459.258 134.975H470.778C470.73 134.207 470.538 133.511 470.202 132.887C469.89 132.263 469.47 131.735 468.942 131.303C468.438 130.871 467.85 130.535 467.178 130.295C466.53 130.055 465.858 129.935 465.162 129.935ZM496.601 142.895H496.169C495.881 143.447 495.509 143.927 495.053 144.335C494.621 144.743 494.141 145.079 493.613 145.343C493.109 145.607 492.569 145.799 491.993 145.919C491.417 146.063 490.865 146.135 490.337 146.135C489.137 146.135 488.021 145.931 486.989 145.523C485.957 145.115 485.045 144.527 484.253 143.759C483.485 142.991 482.873 142.043 482.417 140.915C481.985 139.763 481.769 138.455 481.769 136.991V136.415C481.769 134.975 481.997 133.691 482.453 132.563C482.909 131.411 483.521 130.451 484.289 129.683C485.057 128.891 485.957 128.291 486.989 127.883C488.021 127.475 489.113 127.271 490.265 127.271C491.489 127.271 492.629 127.547 493.685 128.099C494.765 128.627 495.593 129.455 496.169 130.583H496.601V120.431H499.409V145.631H496.601V142.895ZM490.625 143.471C491.465 143.471 492.245 143.315 492.965 143.003C493.685 142.691 494.309 142.247 494.837 141.671C495.389 141.095 495.821 140.411 496.133 139.619C496.445 138.803 496.601 137.903 496.601 136.919V136.487C496.601 135.527 496.445 134.651 496.133 133.859C495.821 133.043 495.389 132.347 494.837 131.771C494.309 131.195 493.673 130.751 492.929 130.439C492.209 130.103 491.441 129.935 490.625 129.935C489.785 129.935 488.993 130.091 488.249 130.403C487.529 130.715 486.893 131.159 486.341 131.735C485.813 132.311 485.393 132.995 485.081 133.787C484.793 134.579 484.649 135.455 484.649 136.415V136.991C484.649 137.999 484.793 138.899 485.081 139.691C485.393 140.483 485.813 141.167 486.341 141.743C486.893 142.295 487.529 142.727 488.249 143.039C488.969 143.327 489.761 143.471 490.625 143.471ZM533.09 130.223C533.09 126.959 533.87 124.427 535.43 122.627C536.99 120.827 539.162 119.927 541.946 119.927C544.73 119.927 546.902 120.827 548.462 122.627C550.022 124.427 550.802 126.959 550.802 130.223V135.839C550.802 138.911 550.142 141.323 548.822 143.075C547.526 144.803 545.702 145.799 543.35 146.063V147.575C543.35 148.295 543.674 148.655 544.322 148.655H547.346V151.247H543.314C542.498 151.247 541.826 150.983 541.298 150.455C540.794 149.927 540.542 149.255 540.542 148.439V146.063C538.166 145.775 536.33 144.767 535.034 143.039C533.738 141.311 533.09 138.911 533.09 135.839V130.223ZM541.946 143.327C543.89 143.327 545.342 142.667 546.302 141.347C547.286 140.003 547.778 138.095 547.778 135.623V130.439C547.778 128.135 547.286 126.275 546.302 124.859C545.342 123.443 543.89 122.735 541.946 122.735C540.002 122.735 538.538 123.443 537.554 124.859C536.594 126.275 536.114 128.135 536.114 130.439V135.623C536.114 138.095 536.594 140.003 537.554 141.347C538.538 142.667 540.002 143.327 541.946 143.327ZM572.449 127.775H575.257V145.631H572.449V142.391H572.017C571.441 143.543 570.685 144.455 569.749 145.127C568.813 145.799 567.625 146.135 566.185 146.135C565.201 146.135 564.289 145.967 563.449 145.631C562.633 145.319 561.925 144.839 561.325 144.191C560.749 143.543 560.293 142.739 559.957 141.779C559.645 140.819 559.489 139.703 559.489 138.431V127.775H562.297V138.071C562.297 139.943 562.681 141.311 563.449 142.175C564.217 143.039 565.393 143.471 566.977 143.471C568.681 143.471 570.013 142.895 570.973 141.743C571.957 140.567 572.449 139.007 572.449 137.063V127.775ZM587.4 137.567C587.472 139.343 588.024 140.771 589.056 141.851C590.088 142.931 591.528 143.471 593.376 143.471C594.216 143.471 594.948 143.375 595.572 143.183C596.196 142.991 596.724 142.727 597.156 142.391C597.612 142.055 597.972 141.671 598.236 141.239C598.524 140.783 598.752 140.303 598.92 139.799L601.584 140.519C601.08 142.175 600.144 143.531 598.776 144.587C597.432 145.619 595.608 146.135 593.304 146.135C592.032 146.135 590.856 145.919 589.776 145.487C588.72 145.031 587.808 144.395 587.04 143.579C586.272 142.763 585.672 141.791 585.24 140.663C584.808 139.535 584.592 138.287 584.592 136.919V136.055C584.592 134.807 584.808 133.643 585.24 132.563C585.696 131.483 586.32 130.559 587.112 129.791C587.904 128.999 588.828 128.387 589.884 127.955C590.964 127.499 592.128 127.271 593.376 127.271C594.84 127.271 596.1 127.547 597.156 128.099C598.236 128.627 599.112 129.287 599.784 130.079C600.48 130.871 600.984 131.735 601.296 132.671C601.632 133.607 601.8 134.471 601.8 135.263V137.567H587.4ZM593.376 129.935C592.584 129.935 591.84 130.067 591.144 130.331C590.472 130.571 589.872 130.919 589.344 131.375C588.84 131.831 588.42 132.371 588.084 132.995C587.772 133.595 587.568 134.255 587.472 134.975H598.992C598.944 134.207 598.752 133.511 598.416 132.887C598.104 132.263 597.684 131.735 597.156 131.303C596.652 130.871 596.064 130.535 595.392 130.295C594.744 130.055 594.072 129.935 593.376 129.935ZM614.699 132.383C614.699 133.247 615.059 133.907 615.779 134.363C616.523 134.819 617.867 135.119 619.811 135.263C621.899 135.431 623.483 135.935 624.563 136.775C625.667 137.591 626.219 138.791 626.219 140.375V140.591C626.219 141.455 626.039 142.235 625.679 142.931C625.343 143.603 624.863 144.179 624.239 144.659C623.639 145.139 622.895 145.499 622.007 145.739C621.143 146.003 620.195 146.135 619.163 146.135C617.771 146.135 616.571 145.955 615.563 145.595C614.579 145.211 613.751 144.719 613.079 144.119C612.431 143.495 611.939 142.799 611.603 142.031C611.267 141.239 611.075 140.447 611.027 139.655L613.691 139.007C613.811 140.375 614.339 141.479 615.275 142.319C616.211 143.135 617.459 143.543 619.019 143.543C620.339 143.543 621.395 143.291 622.187 142.787C623.003 142.259 623.411 141.527 623.411 140.591C623.411 139.583 623.015 138.863 622.223 138.431C621.431 137.999 620.147 137.723 618.371 137.603C616.307 137.459 614.723 136.979 613.619 136.163C612.515 135.347 611.963 134.159 611.963 132.599V132.383C611.963 131.543 612.143 130.811 612.503 130.187C612.863 129.539 613.343 128.999 613.943 128.567C614.567 128.135 615.263 127.811 616.031 127.595C616.799 127.379 617.603 127.271 618.443 127.271C619.619 127.271 620.651 127.439 621.539 127.775C622.427 128.087 623.171 128.507 623.771 129.035C624.371 129.539 624.827 130.127 625.139 130.799C625.475 131.471 625.691 132.143 625.787 132.815L623.123 133.463C623.003 132.311 622.535 131.411 621.719 130.763C620.927 130.115 619.883 129.791 618.587 129.791C618.083 129.791 617.591 129.851 617.111 129.971C616.655 130.067 616.247 130.223 615.887 130.439C615.527 130.655 615.239 130.931 615.023 131.267C614.807 131.579 614.699 131.951 614.699 132.383ZM636.022 127.775H641.638V120.431H644.446V127.775H651.358V130.367H644.446V141.959C644.446 142.679 644.77 143.039 645.418 143.039H650.494V145.631H644.41C643.594 145.631 642.922 145.367 642.394 144.839C641.89 144.311 641.638 143.639 641.638 142.823V130.367H636.022V127.775ZM667.821 122.447C667.821 121.751 668.061 121.163 668.541 120.683C669.045 120.179 669.645 119.927 670.341 119.927C671.037 119.927 671.625 120.179 672.105 120.683C672.609 121.163 672.861 121.751 672.861 122.447C672.861 123.143 672.609 123.743 672.105 124.247C671.625 124.727 671.037 124.967 670.341 124.967C669.645 124.967 669.045 124.727 668.541 124.247C668.061 123.743 667.821 123.143 667.821 122.447ZM662.709 143.039H668.973V130.367H663.357V127.775H671.781V143.039H677.613V145.631H662.709V143.039ZM704.768 136.919C704.768 138.407 704.516 139.727 704.012 140.879C703.532 142.007 702.884 142.967 702.068 143.759C701.252 144.527 700.292 145.115 699.188 145.523C698.108 145.931 696.98 146.135 695.804 146.135C694.604 146.135 693.464 145.931 692.384 145.523C691.304 145.115 690.356 144.527 689.54 143.759C688.724 142.967 688.064 142.007 687.56 140.879C687.08 139.727 686.84 138.407 686.84 136.919V136.487C686.84 135.023 687.08 133.727 687.56 132.599C688.064 131.447 688.724 130.475 689.54 129.683C690.38 128.891 691.34 128.291 692.42 127.883C693.5 127.475 694.628 127.271 695.804 127.271C696.98 127.271 698.108 127.475 699.188 127.883C700.268 128.291 701.216 128.891 702.032 129.683C702.872 130.475 703.532 131.447 704.012 132.599C704.516 133.727 704.768 135.023 704.768 136.487V136.919ZM695.804 143.471C696.668 143.471 697.46 143.327 698.18 143.039C698.924 142.727 699.572 142.283 700.124 141.707C700.676 141.131 701.108 140.447 701.42 139.655C701.732 138.839 701.888 137.927 701.888 136.919V136.487C701.888 135.527 701.732 134.651 701.42 133.859C701.108 133.043 700.676 132.347 700.124 131.771C699.572 131.195 698.924 130.751 698.18 130.439C697.436 130.103 696.644 129.935 695.804 129.935C694.964 129.935 694.172 130.103 693.428 130.439C692.684 130.751 692.036 131.195 691.484 131.771C690.932 132.347 690.5 133.043 690.188 133.859C689.876 134.651 689.72 135.527 689.72 136.487V136.919C689.72 137.927 689.876 138.839 690.188 139.655C690.5 140.447 690.932 141.131 691.484 141.707C692.036 142.283 692.672 142.727 693.392 143.039C694.136 143.327 694.94 143.471 695.804 143.471ZM716.371 145.631H713.563V127.775H716.371V130.799H716.803C717.907 128.447 719.827 127.271 722.563 127.271C724.627 127.271 726.271 127.919 727.495 129.215C728.719 130.487 729.331 132.407 729.331 134.975V145.631H726.523V135.551C726.523 133.679 726.103 132.275 725.263 131.339C724.423 130.403 723.283 129.935 721.843 129.935C720.139 129.935 718.795 130.523 717.811 131.699C716.851 132.851 716.371 134.399 716.371 136.343V145.631ZM742.914 132.383C742.914 133.247 743.274 133.907 743.994 134.363C744.738 134.819 746.082 135.119 748.026 135.263C750.114 135.431 751.698 135.935 752.778 136.775C753.882 137.591 754.434 138.791 754.434 140.375V140.591C754.434 141.455 754.254 142.235 753.894 142.931C753.558 143.603 753.078 144.179 752.454 144.659C751.854 145.139 751.11 145.499 750.222 145.739C749.358 146.003 748.41 146.135 747.378 146.135C745.986 146.135 744.786 145.955 743.778 145.595C742.794 145.211 741.966 144.719 741.294 144.119C740.646 143.495 740.154 142.799 739.818 142.031C739.482 141.239 739.29 140.447 739.242 139.655L741.906 139.007C742.026 140.375 742.554 141.479 743.49 142.319C744.426 143.135 745.674 143.543 747.234 143.543C748.554 143.543 749.61 143.291 750.402 142.787C751.218 142.259 751.626 141.527 751.626 140.591C751.626 139.583 751.23 138.863 750.438 138.431C749.646 137.999 748.362 137.723 746.586 137.603C744.522 137.459 742.938 136.979 741.834 136.163C740.73 135.347 740.178 134.159 740.178 132.599V132.383C740.178 131.543 740.358 130.811 740.718 130.187C741.078 129.539 741.558 128.999 742.158 128.567C742.782 128.135 743.478 127.811 744.246 127.595C745.014 127.379 745.818 127.271 746.658 127.271C747.834 127.271 748.866 127.439 749.754 127.775C750.642 128.087 751.386 128.507 751.986 129.035C752.586 129.539 753.042 130.127 753.354 130.799C753.69 131.471 753.906 132.143 754.002 132.815L751.338 133.463C751.218 132.311 750.75 131.411 749.934 130.763C749.142 130.115 748.098 129.791 746.802 129.791C746.298 129.791 745.806 129.851 745.326 129.971C744.87 130.067 744.462 130.223 744.102 130.439C743.742 130.655 743.454 130.931 743.238 131.267C743.022 131.579 742.914 131.951 742.914 132.383Z" fill="white"/>
</svg>
